<mxfile host="app.diagrams.net" modified="2023-12-19T10:58:34.320Z" agent="Mozilla/5.0 (Macintosh; Intel Mac OS X 10_15_7) AppleWebKit/537.36 (KHTML, like Gecko) Chrome/119.0.0.0 Safari/537.36" etag="aPJXP3SS3RI8o8k9pc4B" version="22.1.11" type="github">
  <diagram name="Page-1" id="LkRhmX5udIgWVVvKP2tT">
    <mxGraphModel dx="1430" dy="756" grid="1" gridSize="10" guides="1" tooltips="1" connect="1" arrows="1" fold="1" page="1" pageScale="1" pageWidth="827" pageHeight="1169" math="0" shadow="0">
      <root>
        <mxCell id="0" />
        <mxCell id="1" parent="0" />
        <mxCell id="s7MB-vvQS7g_MF5XI4Nz-1" value="BUT 2" style="rounded=1;whiteSpace=wrap;html=1;fontSize=20;" parent="1" vertex="1">
          <mxGeometry x="354" y="10" width="120" height="60" as="geometry" />
        </mxCell>
        <mxCell id="p2Pn64rqvdL8HzTHEJ3j-6" style="edgeStyle=orthogonalEdgeStyle;rounded=0;orthogonalLoop=1;jettySize=auto;html=1;exitX=1;exitY=0.5;exitDx=0;exitDy=0;entryX=0;entryY=0.5;entryDx=0;entryDy=0;" edge="1" parent="1" source="s7MB-vvQS7g_MF5XI4Nz-4" target="p2Pn64rqvdL8HzTHEJ3j-5">
          <mxGeometry relative="1" as="geometry" />
        </mxCell>
        <mxCell id="p2Pn64rqvdL8HzTHEJ3j-19" style="edgeStyle=orthogonalEdgeStyle;rounded=0;orthogonalLoop=1;jettySize=auto;html=1;exitX=1;exitY=0.5;exitDx=0;exitDy=0;entryX=0;entryY=0.5;entryDx=0;entryDy=0;" edge="1" parent="1" source="s7MB-vvQS7g_MF5XI4Nz-4" target="p2Pn64rqvdL8HzTHEJ3j-15">
          <mxGeometry relative="1" as="geometry" />
        </mxCell>
        <mxCell id="s7MB-vvQS7g_MF5XI4Nz-4" value="DRC" style="ellipse;whiteSpace=wrap;html=1;fontSize=15;" parent="1" vertex="1">
          <mxGeometry x="50" y="190" width="110" height="70" as="geometry" />
        </mxCell>
        <mxCell id="s7MB-vvQS7g_MF5XI4Nz-5" value="DRC&lt;br&gt;Alternants" style="ellipse;whiteSpace=wrap;html=1;fontSize=15;" parent="1" vertex="1">
          <mxGeometry x="30" y="544" width="110" height="70" as="geometry" />
        </mxCell>
        <mxCell id="s7MB-vvQS7g_MF5XI4Nz-8" value="MPV" style="ellipse;whiteSpace=wrap;html=1;fontSize=15;" parent="1" vertex="1">
          <mxGeometry x="30" y="824" width="110" height="70" as="geometry" />
        </mxCell>
        <mxCell id="s7MB-vvQS7g_MF5XI4Nz-9" value="MDE" style="ellipse;whiteSpace=wrap;html=1;fontSize=15;" parent="1" vertex="1">
          <mxGeometry x="30" y="684" width="110" height="70" as="geometry" />
        </mxCell>
        <mxCell id="s7MB-vvQS7g_MF5XI4Nz-53" value="" style="endArrow=classic;html=1;rounded=0;entryX=1;entryY=0.5;entryDx=0;entryDy=0;exitX=0;exitY=0.5;exitDx=0;exitDy=0;" parent="1" source="s7MB-vvQS7g_MF5XI4Nz-39" edge="1">
          <mxGeometry relative="1" as="geometry">
            <mxPoint x="560" y="474" as="sourcePoint" />
            <mxPoint x="356" y="534" as="targetPoint" />
          </mxGeometry>
        </mxCell>
        <mxCell id="s7MB-vvQS7g_MF5XI4Nz-55" value="" style="endArrow=classic;html=1;rounded=0;entryX=1;entryY=0.5;entryDx=0;entryDy=0;exitX=0;exitY=0.5;exitDx=0;exitDy=0;" parent="1" target="s7MB-vvQS7g_MF5XI4Nz-18" edge="1">
          <mxGeometry relative="1" as="geometry">
            <mxPoint x="540" y="674" as="sourcePoint" />
            <mxPoint x="290" y="614" as="targetPoint" />
          </mxGeometry>
        </mxCell>
        <mxCell id="s7MB-vvQS7g_MF5XI4Nz-57" value="" style="endArrow=classic;html=1;rounded=0;entryX=1;entryY=0.5;entryDx=0;entryDy=0;exitX=0;exitY=0.5;exitDx=0;exitDy=0;" parent="1" source="s7MB-vvQS7g_MF5XI4Nz-42" edge="1">
          <mxGeometry relative="1" as="geometry">
            <mxPoint x="550" y="684" as="sourcePoint" />
            <mxPoint x="356" y="744" as="targetPoint" />
          </mxGeometry>
        </mxCell>
        <mxCell id="s7MB-vvQS7g_MF5XI4Nz-59" value="" style="endArrow=classic;html=1;rounded=0;entryX=1;entryY=0.5;entryDx=0;entryDy=0;exitX=0;exitY=0.5;exitDx=0;exitDy=0;" parent="1" source="s7MB-vvQS7g_MF5XI4Nz-43" edge="1">
          <mxGeometry relative="1" as="geometry">
            <mxPoint x="550" y="754" as="sourcePoint" />
            <mxPoint x="356" y="814" as="targetPoint" />
          </mxGeometry>
        </mxCell>
        <mxCell id="s7MB-vvQS7g_MF5XI4Nz-61" value="" style="endArrow=classic;html=1;rounded=0;entryX=1;entryY=0.5;entryDx=0;entryDy=0;exitX=0;exitY=0.5;exitDx=0;exitDy=0;" parent="1" source="s7MB-vvQS7g_MF5XI4Nz-44" edge="1">
          <mxGeometry relative="1" as="geometry">
            <mxPoint x="550" y="824" as="sourcePoint" />
            <mxPoint x="356" y="884" as="targetPoint" />
          </mxGeometry>
        </mxCell>
        <mxCell id="s7MB-vvQS7g_MF5XI4Nz-72" value="&lt;a href=&quot;mailto:tc.but-2a-drc_auto@etu.iut-tlse3.fr&quot;&gt;tc.but-2a-drc_auto@etu.iut-tlse3.fr&lt;/a&gt;" style="text;html=1;strokeColor=none;fillColor=none;align=left;verticalAlign=middle;whiteSpace=wrap;rounded=0;fontSize=15;fontColor=#055AB2;" parent="1" vertex="1">
          <mxGeometry y="260" width="240" height="30" as="geometry" />
        </mxCell>
        <mxCell id="s7MB-vvQS7g_MF5XI4Nz-74" value="&lt;a href=&quot;mailto:tc.but-2a-mde_auto@etu.iut-tlse3.fr&quot;&gt;tc.but-2a-mde_auto@etu.iut-tlse3.fr&lt;/a&gt;" style="text;html=1;strokeColor=none;fillColor=none;align=left;verticalAlign=middle;whiteSpace=wrap;rounded=0;fontSize=15;fontColor=#055AB2;" parent="1" vertex="1">
          <mxGeometry y="754" width="270" height="30" as="geometry" />
        </mxCell>
        <mxCell id="s7MB-vvQS7g_MF5XI4Nz-75" value="&lt;a href=&quot;mailto:tc.but-2a-mpv_auto@etu.iut-tlse3.fr&quot;&gt;tc.but-2a-mpv_auto@etu.iut-tlse3.fr&lt;/a&gt;" style="text;html=1;strokeColor=none;fillColor=none;align=left;verticalAlign=middle;whiteSpace=wrap;rounded=0;fontSize=15;fontColor=#055AB2;" parent="1" vertex="1">
          <mxGeometry y="894" width="280" height="30" as="geometry" />
        </mxCell>
        <mxCell id="mfzl7yPazm54SCrmdIJB-1" value="&lt;a href=&quot;mailto:tc.but-2a-drc-alt_auto@etu.iut-tlse3.fr&quot;&gt;tc.but-2a-drc-alt_auto@etu.iut-tlse3.fr&lt;/a&gt;" style="text;html=1;strokeColor=none;fillColor=none;align=left;verticalAlign=middle;whiteSpace=wrap;rounded=0;fontSize=15;fontColor=#055AB2;" parent="1" vertex="1">
          <mxGeometry y="614" width="290" height="30" as="geometry" />
        </mxCell>
        <mxCell id="p2Pn64rqvdL8HzTHEJ3j-9" style="edgeStyle=orthogonalEdgeStyle;rounded=0;orthogonalLoop=1;jettySize=auto;html=1;exitX=1;exitY=0.5;exitDx=0;exitDy=0;entryX=0;entryY=0.5;entryDx=0;entryDy=0;" edge="1" parent="1" source="p2Pn64rqvdL8HzTHEJ3j-5" target="p2Pn64rqvdL8HzTHEJ3j-7">
          <mxGeometry relative="1" as="geometry" />
        </mxCell>
        <mxCell id="p2Pn64rqvdL8HzTHEJ3j-5" value="groupe C&lt;br style=&quot;border-color: var(--border-color);&quot;&gt;TT3C&lt;br style=&quot;border-color: var(--border-color);&quot;&gt;&lt;a style=&quot;border: 0px; box-sizing: inherit; font-family: Raleway, sans-serif; font-size: 1.1em; background-color: rgb(255, 255, 255); line-height: inherit; color: rgb(0, 144, 233); text-decoration-line: none; cursor: pointer; margin: 0px; padding: 0px; text-size-adjust: 100%; font-variant-numeric: inherit; font-variant-east-asian: inherit; font-variant-alternates: inherit; font-variant-position: inherit; font-stretch: inherit; font-optical-sizing: inherit; font-kerning: inherit; font-feature-settings: inherit; font-variation-settings: inherit; vertical-align: baseline; transition: background-color 300ms ease-out 0s; -webkit-tap-highlight-color: rgba(0, 0, 0, 0); text-align: left;&quot; href=&quot;mailto:tt3c_auto@etu.iut-tlse3.fr&quot;&gt;tt3c_auto@etu.iut-tlse3.fr&lt;/a&gt;" style="rounded=0;whiteSpace=wrap;html=1;" vertex="1" parent="1">
          <mxGeometry x="360" y="130" width="170" height="50" as="geometry" />
        </mxCell>
        <mxCell id="p2Pn64rqvdL8HzTHEJ3j-7" value="groupe C1&lt;br style=&quot;border-color: var(--border-color);&quot;&gt;TT3C1&lt;br style=&quot;border-color: var(--border-color);&quot;&gt;&lt;a style=&quot;box-sizing: inherit; font-family: Raleway, sans-serif; font-size: 1.1em; background-color: rgb(255, 255, 255); line-height: inherit; color: rgb(0, 144, 233); text-decoration-line: none; cursor: pointer; margin: 0px; padding: 0px; border: 0px; text-size-adjust: 100%; font-variant-numeric: inherit; font-variant-east-asian: inherit; font-variant-alternates: inherit; font-variant-position: inherit; font-stretch: inherit; font-optical-sizing: inherit; font-kerning: inherit; font-feature-settings: inherit; font-variation-settings: inherit; vertical-align: baseline; transition: background-color 300ms ease-out 0s; -webkit-tap-highlight-color: rgba(0, 0, 0, 0); text-align: left;&quot; href=&quot;mailto:tt3c1@etu.iut-tlse3.fr&quot;&gt;tt3c1_auto@etu.iut-tlse3.fr&lt;/a&gt;" style="rounded=0;whiteSpace=wrap;html=1;" vertex="1" parent="1">
          <mxGeometry x="630" y="100" width="170" height="50" as="geometry" />
        </mxCell>
        <mxCell id="p2Pn64rqvdL8HzTHEJ3j-8" value="groupe C2&lt;br style=&quot;border-color: var(--border-color);&quot;&gt;TT3C2&lt;br style=&quot;border-color: var(--border-color);&quot;&gt;&lt;a href=&quot;mailto:tt3c2@etu.iut-tlse3.fr&quot; style=&quot;box-sizing: inherit; font-family: Raleway, sans-serif; font-size: 1.1em; background-color: rgb(255, 255, 255); line-height: inherit; color: rgb(0, 144, 233); text-decoration-line: none; cursor: pointer; margin: 0px; padding: 0px; border: 0px; text-size-adjust: 100%; font-variant-numeric: inherit; font-variant-east-asian: inherit; font-variant-alternates: inherit; font-variant-position: inherit; font-stretch: inherit; font-optical-sizing: inherit; font-kerning: inherit; font-feature-settings: inherit; font-variation-settings: inherit; vertical-align: baseline; transition: background-color 300ms ease-out 0s; -webkit-tap-highlight-color: rgba(0, 0, 0, 0); text-align: left;&quot;&gt;tt3c2_auto@etu.iut-tlse3.fr&lt;/a&gt;" style="rounded=0;whiteSpace=wrap;html=1;" vertex="1" parent="1">
          <mxGeometry x="630" y="170" width="170" height="50" as="geometry" />
        </mxCell>
        <mxCell id="p2Pn64rqvdL8HzTHEJ3j-10" style="edgeStyle=orthogonalEdgeStyle;rounded=0;orthogonalLoop=1;jettySize=auto;html=1;exitX=1;exitY=0.5;exitDx=0;exitDy=0;entryX=-0.01;entryY=0.611;entryDx=0;entryDy=0;entryPerimeter=0;" edge="1" parent="1" source="p2Pn64rqvdL8HzTHEJ3j-5" target="p2Pn64rqvdL8HzTHEJ3j-8">
          <mxGeometry relative="1" as="geometry" />
        </mxCell>
        <mxCell id="p2Pn64rqvdL8HzTHEJ3j-14" style="edgeStyle=orthogonalEdgeStyle;rounded=0;orthogonalLoop=1;jettySize=auto;html=1;exitX=1;exitY=0.5;exitDx=0;exitDy=0;entryX=0;entryY=0.5;entryDx=0;entryDy=0;" edge="1" parent="1" source="p2Pn64rqvdL8HzTHEJ3j-15" target="p2Pn64rqvdL8HzTHEJ3j-16">
          <mxGeometry relative="1" as="geometry" />
        </mxCell>
        <mxCell id="p2Pn64rqvdL8HzTHEJ3j-15" value="groupe D&lt;br style=&quot;border-color: var(--border-color);&quot;&gt;TT3D&lt;br style=&quot;border-color: var(--border-color);&quot;&gt;&lt;a style=&quot;border: 0px; box-sizing: inherit; font-family: Raleway, sans-serif; font-size: 1.1em; background-color: rgb(255, 255, 255); line-height: inherit; color: rgb(0, 144, 233); text-decoration-line: none; cursor: pointer; margin: 0px; padding: 0px; text-size-adjust: 100%; font-variant-numeric: inherit; font-variant-east-asian: inherit; font-variant-alternates: inherit; font-variant-position: inherit; font-stretch: inherit; font-optical-sizing: inherit; font-kerning: inherit; font-feature-settings: inherit; font-variation-settings: inherit; vertical-align: baseline; transition: background-color 300ms ease-out 0s; -webkit-tap-highlight-color: rgba(0, 0, 0, 0); text-align: left;&quot; href=&quot;mailto:tt3d_auto@etu.iut-tlse3.fr&quot;&gt;tt3d_auto@etu.iut-tlse3.fr&lt;/a&gt;" style="rounded=0;whiteSpace=wrap;html=1;" vertex="1" parent="1">
          <mxGeometry x="360" y="270" width="170" height="50" as="geometry" />
        </mxCell>
        <mxCell id="p2Pn64rqvdL8HzTHEJ3j-16" value="groupe D1&lt;br style=&quot;border-color: var(--border-color);&quot;&gt;TT3D1&lt;br style=&quot;border-color: var(--border-color);&quot;&gt;&lt;a style=&quot;box-sizing: inherit; font-family: Raleway, sans-serif; font-size: 1.1em; background-color: rgb(255, 255, 255); line-height: inherit; color: rgb(0, 144, 233); text-decoration-line: none; cursor: pointer; margin: 0px; padding: 0px; border: 0px; text-size-adjust: 100%; font-variant-numeric: inherit; font-variant-east-asian: inherit; font-variant-alternates: inherit; font-variant-position: inherit; font-stretch: inherit; font-optical-sizing: inherit; font-kerning: inherit; font-feature-settings: inherit; font-variation-settings: inherit; vertical-align: baseline; transition: background-color 300ms ease-out 0s; -webkit-tap-highlight-color: rgba(0, 0, 0, 0); text-align: left;&quot; href=&quot;mailto:tt3d1@etu.iut-tlse3.fr&quot;&gt;tt3d1_auto@etu.iut-tlse3.fr&lt;/a&gt;" style="rounded=0;whiteSpace=wrap;html=1;" vertex="1" parent="1">
          <mxGeometry x="630" y="240" width="170" height="50" as="geometry" />
        </mxCell>
        <mxCell id="p2Pn64rqvdL8HzTHEJ3j-17" value="groupe D2&lt;br style=&quot;border-color: var(--border-color);&quot;&gt;TT3D2&lt;br style=&quot;border-color: var(--border-color);&quot;&gt;&lt;a href=&quot;mailto:tt3d2@etu.iut-tlse3.fr&quot; style=&quot;box-sizing: inherit; font-family: Raleway, sans-serif; font-size: 1.1em; background-color: rgb(255, 255, 255); line-height: inherit; color: rgb(0, 144, 233); text-decoration-line: none; cursor: pointer; margin: 0px; padding: 0px; border: 0px; text-size-adjust: 100%; font-variant-numeric: inherit; font-variant-east-asian: inherit; font-variant-alternates: inherit; font-variant-position: inherit; font-stretch: inherit; font-optical-sizing: inherit; font-kerning: inherit; font-feature-settings: inherit; font-variation-settings: inherit; vertical-align: baseline; transition: background-color 300ms ease-out 0s; -webkit-tap-highlight-color: rgba(0, 0, 0, 0); text-align: left;&quot;&gt;tt3d2_auto@etu.iut-tlse3.fr&lt;/a&gt;" style="rounded=0;whiteSpace=wrap;html=1;" vertex="1" parent="1">
          <mxGeometry x="630" y="310" width="170" height="50" as="geometry" />
        </mxCell>
        <mxCell id="p2Pn64rqvdL8HzTHEJ3j-18" style="edgeStyle=orthogonalEdgeStyle;rounded=0;orthogonalLoop=1;jettySize=auto;html=1;exitX=1;exitY=0.5;exitDx=0;exitDy=0;entryX=-0.01;entryY=0.611;entryDx=0;entryDy=0;entryPerimeter=0;" edge="1" parent="1" source="p2Pn64rqvdL8HzTHEJ3j-15" target="p2Pn64rqvdL8HzTHEJ3j-17">
          <mxGeometry relative="1" as="geometry" />
        </mxCell>
        <mxCell id="p2Pn64rqvdL8HzTHEJ3j-20" style="edgeStyle=orthogonalEdgeStyle;rounded=0;orthogonalLoop=1;jettySize=auto;html=1;exitX=1;exitY=0.5;exitDx=0;exitDy=0;entryX=0;entryY=0.5;entryDx=0;entryDy=0;" edge="1" parent="1" target="p2Pn64rqvdL8HzTHEJ3j-22" source="s7MB-vvQS7g_MF5XI4Nz-4">
          <mxGeometry relative="1" as="geometry">
            <mxPoint x="160" y="360" as="sourcePoint" />
          </mxGeometry>
        </mxCell>
        <mxCell id="p2Pn64rqvdL8HzTHEJ3j-21" style="edgeStyle=orthogonalEdgeStyle;rounded=0;orthogonalLoop=1;jettySize=auto;html=1;exitX=1;exitY=0.5;exitDx=0;exitDy=0;entryX=0;entryY=0.5;entryDx=0;entryDy=0;" edge="1" parent="1" source="p2Pn64rqvdL8HzTHEJ3j-22" target="p2Pn64rqvdL8HzTHEJ3j-23">
          <mxGeometry relative="1" as="geometry" />
        </mxCell>
        <mxCell id="p2Pn64rqvdL8HzTHEJ3j-22" value="groupe E&lt;br style=&quot;border-color: var(--border-color);&quot;&gt;TT3E&lt;br style=&quot;border-color: var(--border-color);&quot;&gt;&lt;a style=&quot;border: 0px; box-sizing: inherit; font-family: Raleway, sans-serif; font-size: 1.1em; background-color: rgb(255, 255, 255); line-height: inherit; color: rgb(0, 144, 233); text-decoration-line: none; cursor: pointer; margin: 0px; padding: 0px; text-size-adjust: 100%; font-variant-numeric: inherit; font-variant-east-asian: inherit; font-variant-alternates: inherit; font-variant-position: inherit; font-stretch: inherit; font-optical-sizing: inherit; font-kerning: inherit; font-feature-settings: inherit; font-variation-settings: inherit; vertical-align: baseline; transition: background-color 300ms ease-out 0s; -webkit-tap-highlight-color: rgba(0, 0, 0, 0); text-align: left;&quot; href=&quot;mailto:tt3e_auto@etu.iut-tlse3.fr&quot;&gt;tt3e_auto@etu.iut-tlse3.fr&lt;/a&gt;" style="rounded=0;whiteSpace=wrap;html=1;" vertex="1" parent="1">
          <mxGeometry x="360" y="405" width="170" height="50" as="geometry" />
        </mxCell>
        <mxCell id="p2Pn64rqvdL8HzTHEJ3j-23" value="groupe E1&lt;br style=&quot;border-color: var(--border-color);&quot;&gt;TT3E1&lt;br style=&quot;border-color: var(--border-color);&quot;&gt;&lt;a style=&quot;box-sizing: inherit; font-family: Raleway, sans-serif; font-size: 1.1em; background-color: rgb(255, 255, 255); line-height: inherit; color: rgb(0, 144, 233); text-decoration-line: none; cursor: pointer; margin: 0px; padding: 0px; border: 0px; text-size-adjust: 100%; font-variant-numeric: inherit; font-variant-east-asian: inherit; font-variant-alternates: inherit; font-variant-position: inherit; font-stretch: inherit; font-optical-sizing: inherit; font-kerning: inherit; font-feature-settings: inherit; font-variation-settings: inherit; vertical-align: baseline; transition: background-color 300ms ease-out 0s; -webkit-tap-highlight-color: rgba(0, 0, 0, 0); text-align: left;&quot; href=&quot;mailto:tt3e1@etu.iut-tlse3.fr&quot;&gt;tt3e1_auto@etu.iut-tlse3.fr&lt;/a&gt;" style="rounded=0;whiteSpace=wrap;html=1;" vertex="1" parent="1">
          <mxGeometry x="630" y="375" width="170" height="50" as="geometry" />
        </mxCell>
        <mxCell id="p2Pn64rqvdL8HzTHEJ3j-24" value="groupe E2&lt;br style=&quot;border-color: var(--border-color);&quot;&gt;TT3E2&lt;br style=&quot;border-color: var(--border-color);&quot;&gt;&lt;a href=&quot;mailto:tte2@etu.iut-tlse3.fr&quot; style=&quot;box-sizing: inherit; font-family: Raleway, sans-serif; font-size: 1.1em; background-color: rgb(255, 255, 255); line-height: inherit; color: rgb(0, 144, 233); text-decoration-line: none; cursor: pointer; margin: 0px; padding: 0px; border: 0px; text-size-adjust: 100%; font-variant-numeric: inherit; font-variant-east-asian: inherit; font-variant-alternates: inherit; font-variant-position: inherit; font-stretch: inherit; font-optical-sizing: inherit; font-kerning: inherit; font-feature-settings: inherit; font-variation-settings: inherit; vertical-align: baseline; transition: background-color 300ms ease-out 0s; -webkit-tap-highlight-color: rgba(0, 0, 0, 0); text-align: left;&quot;&gt;tt3e2_auto@etu.iut-tlse3.fr&lt;/a&gt;" style="rounded=0;whiteSpace=wrap;html=1;" vertex="1" parent="1">
          <mxGeometry x="630" y="445" width="170" height="50" as="geometry" />
        </mxCell>
        <mxCell id="p2Pn64rqvdL8HzTHEJ3j-25" style="edgeStyle=orthogonalEdgeStyle;rounded=0;orthogonalLoop=1;jettySize=auto;html=1;exitX=1;exitY=0.5;exitDx=0;exitDy=0;entryX=-0.01;entryY=0.611;entryDx=0;entryDy=0;entryPerimeter=0;" edge="1" parent="1" source="p2Pn64rqvdL8HzTHEJ3j-22" target="p2Pn64rqvdL8HzTHEJ3j-24">
          <mxGeometry relative="1" as="geometry" />
        </mxCell>
      </root>
    </mxGraphModel>
  </diagram>
</mxfile>
